PathFileType	4	(X/Y/Z)	CP4_315.1s.trc																												
DataRate	CameraRate	NumFrames	NumMarkers	Units	OrigDataRate	OrigDataStartFrame	OrigNumFrames																								
30	30	12	10	mm	30	3546	9454																								
Frame#	Time	pelvis_center			manubrium			l_acromion			l_humerus_epicondyle			l_radius_styloid			l_center_hand			r_acromion			r_humerus_epicondyle			r_radius_styloid			r_center_hand		
		X1	Y1	Z1	X2	Y2	Z2	X3	Y3	Z3	X4	Y4	Z4	X5	Y5	Z5	X6	Y6	Z6	X7	Y7	Z7	X8	Y8	Z8	X9	Y9	Z9	X10	Y10	Z10
																															
3546	118.1666667	-2389.982397	-120.7459933	190.1796864	-2505.002322	163.9979273	197.6410747	-2399.400975	103.315751	56.70485969	-2172.844914	24.97381091	111.8207689	-1973.407261	44.78758777	204.0426617	-1904.940739	72.97896711	353.1982605	-2427.942689	38.98429538	330.9924741	-2242.581449	-0.111350017	368.1348311	-2004.997622	24.88878282	352.3391252	-1914.031084	69.96425601	352.0035019
3547	118.2	-2390.002673	-120.9960189	189.6519496	-2505.025433	163.972475	197.294278	-2400.103031	103.7297026	56.19148233	-2173.340419	24.95485115	110.8590402	-1972.836687	45.29121372	202.5879509	-1904.637376	72.93299944	352.6410576	-2427.59793	38.96852934	330.9892299	-2242.678096	-1.102114837	366.9142178	-2006.071473	23.89550856	352.7716553	-1913.998767	70.03960257	352.0355246
3548	118.2333333	-2390.004435	-121.0482764	189.2343267	-2505.036505	163.9586419	196.9861375	-2400.778093	104.0511523	55.67644813	-2173.748235	25.04854532	109.8688221	-1971.999537	45.77753286	201.168155	-1904.254694	72.98247589	351.8929921	-2427.211015	38.95351541	331.0184602	-2242.873631	-2.065191752	365.8494407	-2007.104002	22.83766928	353.0021555	-1913.959004	70.29543068	352.0095179
3549	118.2666667	-2390.001115	-121.0186565	189.0245148	-2504.938778	164.0625183	196.6754278	-2401.338351	104.3660414	55.17097412	-2174.067369	25.34714914	108.8647968	-1971.202827	46.35105462	199.7715016	-1904.030103	73.33594726	350.9712211	-2426.967122	39.08279774	331.0899797	-2243.19713	-2.844676937	364.9035383	-2008.228693	21.88713928	353.0475138	-1913.69733	70.73930486	352.018801
3550	118.3	-2389.999543	-120.9974657	188.8984182	-2504.664865	164.3622066	196.2551116	-2401.830963	104.7120209	54.67506017	-2174.40476	25.73422378	107.8601398	-1970.519528	47.13323435	198.4002883	-1903.994887	74.08391201	349.8867074	-2427.023868	39.44345724	331.0755125	-2243.729042	-3.542584705	363.8743087	-2009.57171	21.14477644	353.0406973	-1913.211292	71.34273302	352.0619842
3551	118.3333333	-2389.999613	-120.9952656	188.6522143	-2504.318007	164.7264482	195.6683005	-2402.32901	105.0356762	54.18268048	-2174.76571	25.96810248	106.8595985	-1969.876172	48.09545053	197.1631353	-1903.930124	75.08039089	348.5203255	-2427.347492	39.7805024	330.649748	-2243.849133	-4.186241634	362.5270024	-2010.912148	20.61108994	353.0399651	-1912.672281	72.13446081	352.0130244
3552	118.3666667	-2389.99995	-120.9983464	188.2949099	-2504.009429	164.9362414	194.8728663	-2402.846508	105.3618642	53.68665604	-2174.990876	26.01116075	105.8594053	-1969.351181	49.10436926	196.2742413	-1903.661262	76.12728409	346.7746563	-2427.706498	39.59663861	329.5404367	-2242.276019	-4.434486639	360.7549314	-2011.791938	20.24168193	352.9510699	-1912.246299	73.0986593	351.6654256
3553	118.4	-2390.000061	-121.0002995	187.9529898	-2503.599326	165.0381141	193.9002196	-2403.345307	105.7114834	53.18893351	-2175.017013	26.07670976	104.8555443	-1968.917066	50.10160986	195.5580033	-1903.295406	77.14748263	344.7571637	-2427.884941	38.75968315	327.8977486	-2238.494594	-3.966627159	358.7122934	-2012.043239	19.96588742	352.6610988	-1911.949068	74.13212615	350.9370961
3554	118.4333333	-2390.000023	-121.0024479	187.6214163	-2502.893715	165.3373512	192.8681484	-2403.748262	106.0422844	52.69923753	-2174.974763	26.33314382	103.8596629	-1968.238698	51.16618917	194.4917851	-1903.05042	78.14755688	342.6881157	-2428.048248	37.8749117	326.1488297	-2233.552664	-2.917889883	356.7326746	-2011.992769	19.63072817	352.2282988	-1911.636645	75.1478471	349.9536418
3555	118.4666667	-2389.999959	-121.0047297	187.274991	-2501.947402	166.0379849	191.8569522	-2404.044322	106.3860512	52.19351398	-2175.054673	26.69935862	102.8841804	-1967.154185	52.41940656	192.849779	-1902.893174	79.14392382	340.7463755	-2428.654636	37.87008048	324.4505948	-2228.964832	-1.669151935	355.0899321	-2012.157864	19.13962659	351.8288932	-1911.20312	76.11805171	348.8310648
3556	118.5	-2389.999955	-120.9983151	186.9455815	-2500.923276	167.1076793	190.8810856	-2404.362026	106.7293799	51.59541594	-2175.355333	27.03012466	101.9060874	-1965.935637	53.88122455	190.860193	-1902.621704	80.13415616	339.0309705	-2429.890266	39.13831516	322.6631487	-2225.443842	-0.462295162	353.7751699	-2012.738286	18.66657419	351.4246007	-1910.698767	77.06800133	347.5673461
3557	118.5333333	-2390.000136	-120.9730444	186.6010627	-2499.823257	168.4354596	189.9121561	-2404.802728	106.9529981	50.8894046	-2175.749849	27.36577596	100.8307337	-1964.843082	55.49731396	188.7360232	-1902.255662	81.1047222	337.5206097	-2431.455174	41.20467372	320.800927	-2222.840737	0.781971475	352.5235045	-2013.009301	18.82402863	350.4631757	-1910.195894	78.12667827	346.165542
